<svg width="680" height="680" viewBox="0 0 680 680" role="img" xmlns="http://www.w3.org/2000/svg">
<title>OCX26 blog cover — Jakarta EE is Ready for AI</title>
<desc>A stylised illustration of Brussels architecture at night with geometric AI elements, square format cover image for Foojay blog</desc>

<style>
  .sky { fill: #0f1f3d }
  .ground { fill: #1a2e50 }
  .building { fill: #162340 }
  .building-lit { fill: #1e3260 }
  .window { fill: #f0c060; opacity: 0.85 }
  .window-blue { fill: #60b0f0; opacity: 0.7 }
  .spire { fill: #263d6b }
  .star { fill: #f0e0a0; opacity: 0.7 }
  .glow-ring { fill: none; stroke: #60b0f0; opacity: 0.18 }
  .circuit { fill: none; stroke: #60b0f0; stroke-width: 0.8; opacity: 0.35 }
  .label-main { font-family: Georgia, serif; font-size: 36px; font-weight: 700; fill: #f8f0d8; letter-spacing: 0.5px }
  .label-sub { font-family: Georgia, serif; font-size: 15px; font-weight: 400; fill: #90b8e8; letter-spacing: 3px }
  .dot { fill: #60b0f0 }
</style>

<rect x="0" y="0" width="680" height="680" class="sky"/>
<circle cx="50" cy="40" r="1.2" class="star"/>
<circle cx="110" cy="25" r="0.9" class="star"/>
<circle cx="190" cy="55" r="1.1" class="star"/>
<circle cx="300" cy="30" r="0.8" class="star"/>
<circle cx="410" cy="48" r="1.3" class="star"/>
<circle cx="520" cy="28" r="0.9" class="star"/>
<circle cx="605" cy="52" r="1.1" class="star"/>
<circle cx="650" cy="35" r="0.8" class="star"/>
<circle cx="75" cy="70" r="0.7" class="star"/>
<circle cx="450" cy="20" r="0.9" class="star"/>
<circle cx="570" cy="68" r="0.7" class="star"/>
<circle cx="240" cy="38" r="0.8" class="star"/>
<circle cx="630" cy="80" r="0.7" class="star"/>
<circle cx="30" cy="90" r="0.9" class="star"/>
<circle cx="350" cy="62" r="0.8" class="star"/>
<polyline points="40,120 80,120 80,100 130,100" class="circuit"/>
<polyline points="560,110 600,110 600,130 640,130" class="circuit"/>
<circle cx="80" cy="120" r="2.5" class="dot" opacity="0.4"/>
<circle cx="600" cy="110" r="2.5" class="dot" opacity="0.4"/>
<polyline points="260,80 260,105 295,105" class="circuit"/>
<circle cx="260" cy="105" r="2" class="dot" opacity="0.35"/>
<polyline points="420,90 420,115 455,115" class="circuit"/>
<circle cx="420" cy="115" r="2" class="dot" opacity="0.35"/>
<circle cx="340" cy="190" r="70" class="glow-ring" stroke-width="14"/>
<circle cx="340" cy="190" r="48" class="glow-ring" stroke-width="10" opacity="0.22"/>
<circle cx="340" cy="190" r="26" fill="#60b0f0" opacity="0.10"/>
<circle cx="340" cy="190" r="12" fill="#60b0f0" opacity="0.55"/>
<circle cx="340" cy="190" r="6" fill="#f0f8ff" opacity="0.9"/>
<line x1="340" y1="202" x2="180" y2="310" fill="none" stroke="#7ed97e" stroke-width="0.8" opacity="0.22"/>
<line x1="340" y1="202" x2="500" y2="310" fill="none" stroke="#7ed97e" stroke-width="0.8" opacity="0.22"/>
<line x1="340" y1="202" x2="340" y2="310" fill="none" stroke="#f0c060" stroke-width="0.8" opacity="0.18"/>
<line x1="305" y1="185" x2="150" y2="270" class="circuit" opacity="0.18"/>
<line x1="375" y1="185" x2="530" y2="270" class="circuit" opacity="0.18"/>
<rect x="0" y="420" width="70" height="260" class="building"/>
<rect x="8" y="432" width="14" height="12" class="window"/>
<rect x="28" y="432" width="14" height="12" class="window-blue"/>
<rect x="48" y="432" width="14" height="12" class="window"/>
<rect x="8" y="452" width="14" height="12" class="window-blue"/>
<rect x="48" y="452" width="14" height="12" class="window"/>
<rect x="8" y="472" width="14" height="12" class="window"/>
<rect x="28" y="472" width="14" height="12" class="window-blue"/>
<rect x="78" y="310" width="88" height="370" class="building-lit"/>
<rect x="85" y="320" width="16" height="14" class="window"/>
<rect x="107" y="320" width="16" height="14" class="window-blue"/>
<rect x="129" y="320" width="16" height="14" class="window"/>
<rect x="85" y="344" width="16" height="14" class="window-blue"/>
<rect x="107" y="344" width="16" height="14" class="window"/>
<rect x="129" y="344" width="16" height="14" class="window-blue"/>
<rect x="85" y="368" width="16" height="14" class="window"/>
<rect x="129" y="368" width="16" height="14" class="window"/>
<rect x="107" y="392" width="16" height="14" class="window-blue"/>
<polygon points="122,275 110,310 134,310" class="spire"/>
<line x1="122" y1="264" x2="122" y2="275" stroke="#f0c060" stroke-width="1.5" opacity="0.85"/>
<rect x="175" y="330" width="100" height="350" class="building"/>
<rect x="183" y="342" width="18" height="15" class="window-blue"/>
<rect x="207" y="342" width="18" height="15" class="window"/>
<rect x="231" y="342" width="18" height="15" class="window-blue"/>
<rect x="183" y="366" width="18" height="15" class="window"/>
<rect x="207" y="366" width="18" height="15" class="window-blue"/>
<rect x="231" y="366" width="18" height="15" class="window"/>
<rect x="183" y="390" width="18" height="15" class="window-blue"/>
<rect x="231" y="390" width="18" height="15" class="window"/>
<rect x="207" y="414" width="18" height="15" class="window"/>
<rect x="282" y="290" width="116" height="390" class="building-lit"/>
<rect x="312" y="272" width="56" height="24" class="spire"/>
<polygon points="340,220 322,272 358,272" class="spire"/>
<line x1="340" y1="208" x2="340" y2="220" stroke="#f0c060" stroke-width="1.8" opacity="0.95"/>
<rect x="290" y="302" width="20" height="16" class="window"/>
<rect x="316" y="302" width="20" height="16" class="window-blue"/>
<rect x="342" y="302" width="20" height="16" class="window"/>
<rect x="368" y="302" width="20" height="16" class="window-blue"/>
<rect x="290" y="328" width="20" height="16" class="window-blue"/>
<rect x="316" y="328" width="20" height="16" class="window"/>
<rect x="342" y="328" width="20" height="16" class="window-blue"/>
<rect x="368" y="328" width="20" height="16" class="window"/>
<rect x="290" y="354" width="20" height="16" class="window"/>
<rect x="368" y="354" width="20" height="16" class="window-blue"/>
<rect x="316" y="354" width="20" height="16" class="window-blue"/>
<rect x="342" y="354" width="20" height="16" class="window"/>
<rect x="290" y="380" width="20" height="16" class="window-blue"/>
<rect x="368" y="380" width="20" height="16" class="window"/>
<rect x="408" y="325" width="100" height="355" class="building"/>
<rect x="416" y="338" width="18" height="15" class="window-blue"/>
<rect x="440" y="338" width="18" height="15" class="window"/>
<rect x="464" y="338" width="18" height="15" class="window-blue"/>
<rect x="416" y="362" width="18" height="15" class="window"/>
<rect x="440" y="362" width="18" height="15" class="window-blue"/>
<rect x="464" y="362" width="18" height="15" class="window"/>
<rect x="416" y="386" width="18" height="15" class="window-blue"/>
<rect x="464" y="386" width="18" height="15" class="window"/>
<rect x="440" y="410" width="18" height="15" class="window-blue"/>
<polygon points="457,295 447,325 467,325" class="spire"/>
<rect x="518" y="315" width="88" height="365" class="building-lit"/>
<rect x="526" y="326" width="16" height="14" class="window"/>
<rect x="548" y="326" width="16" height="14" class="window-blue"/>
<rect x="570" y="326" width="16" height="14" class="window"/>
<rect x="526" y="350" width="16" height="14" class="window-blue"/>
<rect x="548" y="350" width="16" height="14" class="window"/>
<rect x="570" y="350" width="16" height="14" class="window-blue"/>
<rect x="526" y="374" width="16" height="14" class="window"/>
<rect x="570" y="374" width="16" height="14" class="window"/>
<rect x="548" y="398" width="16" height="14" class="window-blue"/>
<polygon points="562,280 550,315 574,315" class="spire"/>
<line x1="562" y1="268" x2="562" y2="280" stroke="#f0c060" stroke-width="1.5" opacity="0.85"/>
<rect x="614" y="425" width="66" height="255" class="building"/>
<rect x="622" y="436" width="14" height="12" class="window-blue"/>
<rect x="642" y="436" width="14" height="12" class="window"/>
<rect x="622" y="456" width="14" height="12" class="window"/>
<rect x="642" y="456" width="14" height="12" class="window-blue"/>
<rect x="622" y="476" width="14" height="12" class="window-blue"/>
<rect x="0" y="618" width="680" height="62" class="ground"/>
<line x1="0" y1="620" x2="680" y2="620" stroke="#60b0f0" stroke-width="0.5" opacity="0.25"/>
<text x="340" y="558" text-anchor="middle" class="label-main">Jakarta EE</text>
<text x="340" y="596" text-anchor="middle" class="label-main">is ready for AI</text>
<text x="340" y="648" text-anchor="middle" class="label-sub">OCX26 · BRUSSELS · 2026</text>
</svg>
