<?xml version="1.0" encoding="UTF-8"?>
<!-- Do not edit this file with editors other than diagrams.net -->
<svg xmlns="http://www.w3.org/2000/svg" xmlns:xlink="http://www.w3.org/1999/xlink" style="background-color: rgb(255, 255, 255);" version="1.1" width="398px" height="285px" viewBox="-0.5 -0.5 398 285">
  <defs></defs>
  <g>
    <rect x="157" y="0" width="100" height="40" rx="6" ry="6" fill="rgb(255, 255, 255)" stroke="rgb(0, 0, 0)"></rect>
    <path d="M 207 40 L 207 280" fill="none" stroke="rgb(0, 0, 0)" stroke-miterlimit="10" stroke-dasharray="3 3"></path>
    <g transform="translate(-0.5 -0.5)">
      <switch>
        <text x="207" y="24" fill="rgb(0, 0, 0)" font-family="Helvetica" font-size="12px" text-anchor="middle">Thread 1</text>
      </switch>
    </g>
    <rect x="297" y="0" width="100" height="40" rx="6" ry="6" fill="rgb(255, 255, 255)" stroke="rgb(0, 0, 0)"></rect>
    <path d="M 347 40 L 347 280" fill="none" stroke="rgb(0, 0, 0)" stroke-miterlimit="10" stroke-dasharray="3 3"></path>
    <g transform="translate(-0.5 -0.5)">
      <switch>
        <text x="347" y="24" fill="rgb(0, 0, 0)" font-family="Helvetica" font-size="12px" text-anchor="middle">Thread 2</text>
      </switch>
    </g>
    <rect x="17" y="0" width="100" height="40" rx="6" ry="6" fill="rgb(255, 255, 255)" stroke="rgb(0, 0, 0)"></rect>
    <path d="M 67 40 L 67 270" fill="none" stroke="rgb(0, 0, 0)" stroke-miterlimit="10" stroke-dasharray="3 3"></path>
    <g transform="translate(-0.5 -0.5)">
      <switch>
        <text x="67" y="24" fill="rgb(0, 0, 0)" font-family="Helvetica" font-size="12px" text-anchor="middle">Sampler</text>
      </switch>
    </g>
    <rect x="27" y="169" width="90" height="30" fill="none" stroke="none" transform="rotate(90,72,184)"></rect>
    <g transform="translate(-0.5 -0.5)rotate(90 72 184)">
      <switch>
        <text x="72" y="188" fill="rgb(0, 0, 0)" font-family="Helvetica" font-size="12px" text-anchor="middle">walk thread 1</text>
      </switch>
    </g>
    <rect x="62" y="90" width="10" height="180" fill="rgb(255, 255, 255)" stroke="rgb(0, 0, 0)"></rect>
    <rect x="67" y="110" width="10" height="30" fill="rgb(255, 255, 255)" stroke="rgb(0, 0, 0)"></rect>
    <rect x="52" y="110" width="40" height="30" fill="none" stroke="none" transform="rotate(90,72,125)"></rect>
    <g transform="translate(-0.5 -0.5)rotate(90 72 125)">
      <switch>
        <text x="72" y="129" fill="rgb(0, 0, 0)" font-family="Helvetica" font-size="12px" text-anchor="middle">wait</text>
      </switch>
    </g>
    <path d="M 201.6 140.6 L 85.12 140.04" fill="none" stroke="rgb(0, 0, 0)" stroke-miterlimit="10" stroke-dasharray="1 3"></path>
    <path d="M 78.12 140.01 L 85.13 136.54 L 85.1 143.54 Z" fill="rgb(0, 0, 0)" stroke="rgb(0, 0, 0)" stroke-miterlimit="10"></path>
    <rect x="85" y="104" width="140" height="50" fill="none" stroke="none"></rect>
    <g transform="translate(-0.5 -0.5)">
      <switch>
        <text x="87" y="133" fill="rgb(0, 0, 0)" font-family="Helvetica" font-size="12px">_uncontext = ...</text>
      </switch>
    </g>
    <path d="M 72 100 L 177 100 Q 187 100 190.84 100 L 194.68 100" fill="none" stroke="rgb(0, 0, 0)" stroke-miterlimit="10"></path>
    <path d="M 201.68 100 L 194.68 103.5 L 194.68 96.5 Z" fill="rgb(0, 0, 0)" stroke="rgb(0, 0, 0)" stroke-miterlimit="10"></path>
    <g transform="translate(-0.5 -0.5)">
      <switch>
        <text x="137" y="97" fill="rgb(0, 0, 0)" font-family="Helvetica" font-size="12px" text-anchor="middle">signal</text>
      </switch>
    </g>
    <rect x="67" y="144" width="10" height="80" fill="rgb(255, 255, 255)" stroke="rgb(0, 0, 0)"></rect>
    <rect x="202" y="100" width="10" height="43" fill="rgb(255, 255, 255)" stroke="rgb(0, 0, 0)"></rect>
    <rect x="0" y="40" width="140" height="50" fill="none" stroke="none"></rect>
    <g transform="translate(-0.5 -0.5)">
      <switch>
        <text x="2" y="69" fill="rgb(0, 0, 0)" font-family="Helvetica" font-size="12px">_ucontext = null</text>
      </switch>
    </g>
    <rect x="27" y="169" width="90" height="30" fill="none" stroke="none" transform="rotate(90,72,184)"></rect>
    <g transform="translate(-0.5 -0.5)rotate(90 72 184)">
      <switch>
        <text x="72" y="188" fill="rgb(0, 0, 0)" font-family="Helvetica" font-size="12px" text-anchor="middle">walk thread 1</text>
      </switch>
    </g>
    <rect x="47" y="250" width="335" height="34" fill="rgb(255, 255, 255)" stroke="none"></rect>
    <rect x="187" y="240" width="40" height="30" fill="none" stroke="none"></rect>
    <g transform="translate(-0.5 -0.5)">
      <switch>
        <text x="207" y="259" fill="rgb(0, 0, 0)" font-family="Helvetica" font-size="12px" text-anchor="middle">...</text>
      </switch>
    </g>
  </g>
  <switch>
    <g></g>
    <a transform="translate(0,-5)" xlink:href="https://www.diagrams.net/doc/faq/svg-export-text-problems">
      <text text-anchor="middle" font-size="10px" x="50%" y="100%">Text is not SVG - cannot display</text>
    </a>
  </switch>
</svg>
